# Blender v3.0.1 OBJ File: 'multi.blend'
# www.blender.org
mtllib multi.mtl
o Cube_Cube.001
v -20.000000 -1.000000 20.000000
v -20.000000 1.000000 20.000000
v -20.000000 -1.000000 -20.000000
v -20.000000 1.000000 -20.000000
v 20.000000 -1.000000 20.000000
v 20.000000 1.000000 20.000000
v 20.000000 -1.000000 -20.000000
v 20.000000 1.000000 -20.000000
vt 0.375000 0.000000
vt 0.625000 0.000000
vt 0.625000 0.250000
vt 0.375000 0.250000
vt 0.625000 0.500000
vt 0.375000 0.500000
vt 0.625000 0.750000
vt 0.375000 0.750000
vt 0.625000 1.000000
vt 0.375000 1.000000
vt 0.125000 0.500000
vt 0.125000 0.750000
vt 0.875000 0.500000
vt 0.875000 0.750000
vn -1.0000 0.0000 0.0000
vn 0.0000 0.0000 -1.0000
vn 1.0000 0.0000 0.0000
vn 0.0000 0.0000 1.0000
vn 0.0000 -1.0000 0.0000
vn 0.0000 1.0000 0.0000
usemtl None
s off
f 1/1/1 2/2/1 4/3/1 3/4/1
f 3/4/2 4/3/2 8/5/2 7/6/2
f 7/6/3 8/5/3 6/7/3 5/8/3
f 5/8/4 6/7/4 2/9/4 1/10/4
f 3/11/5 7/6/5 5/8/5 1/12/5
f 8/5/6 4/13/6 2/14/6 6/7/6
o Cube.001_Cube.002
v 19.542070 0.770617 -16.567638
v 19.542070 10.770617 -16.567638
v 18.190170 0.770617 -18.041534
v 18.190170 10.770617 -18.041534
v 4.803130 0.770617 -3.048629
v 4.803130 10.770617 -3.048629
v 3.451229 0.770617 -4.522523
v 3.451229 10.770617 -4.522523
vt 0.375000 0.000000
vt 0.375000 0.250000
vt 0.625000 0.250000
vt 0.625000 0.000000
vt 0.375000 0.500000
vt 0.625000 0.500000
vt 0.375000 0.750000
vt 0.625000 0.750000
vt 0.375000 1.000000
vt 0.625000 1.000000
vt 0.125000 0.500000
vt 0.125000 0.750000
vt 0.875000 0.750000
vt 0.875000 0.500000
vn 0.7369 0.0000 -0.6759
vn -0.6760 0.0000 -0.7369
vn -0.7369 0.0000 0.6760
vn 0.6760 0.0000 0.7369
vn 0.0000 -1.0000 0.0000
vn 0.0000 1.0000 0.0000
usemtl None
s off
f 9/15/7 11/16/7 12/17/7 10/18/7
f 11/16/8 15/19/8 16/20/8 12/17/8
f 15/19/9 13/21/9 14/22/9 16/20/9
f 13/21/10 9/23/10 10/24/10 14/22/10
f 11/25/11 9/26/11 13/21/11 15/19/11
f 16/20/12 14/22/12 10/27/12 12/28/12
o Cube.002_Cube.003
v -13.162373 0.775869 12.993320
v -13.162373 2.775868 12.993320
v -13.162373 0.775869 10.993320
v -13.162373 2.775868 10.993320
v -11.162373 0.775869 12.993320
v -11.162373 2.775868 12.993320
v -11.162373 0.775869 10.993320
v -11.162373 2.775868 10.993320
v -17.412790 -1.405106 6.742902
v -17.412790 -1.405106 17.243738
v -17.412790 0.594894 17.243738
v -17.412790 0.594894 6.742902
v -6.911954 -1.405106 6.742902
v -6.911954 0.594894 6.742902
v -6.911954 -1.405106 17.243738
v -6.911954 0.594894 17.243738
vt 0.375000 0.500000
vt 0.125000 0.500000
vt 0.125000 0.500000
vt 0.375000 0.500000
vt 0.625000 0.500000
vt 0.625000 0.750000
vt 0.625000 0.750000
vt 0.625000 0.500000
vt 0.125000 0.750000
vt 0.375000 0.750000
vt 0.375000 0.750000
vt 0.125000 0.750000
vt 0.875000 0.500000
vt 0.875000 0.500000
vt 0.875000 0.750000
vt 0.375000 0.000000
vt 0.625000 0.000000
vt 0.625000 0.250000
vt 0.375000 0.250000
vt 0.625000 1.000000
vt 0.375000 1.000000
vt 0.875000 0.750000
vn 0.0000 -0.8897 0.4565
vn 0.4565 0.8897 0.0000
vn 0.0000 -0.8897 -0.4565
vn 0.0000 0.8897 -0.4565
vn 0.0000 -1.0000 0.0000
vn 0.0000 1.0000 0.0000
vn -1.0000 0.0000 0.0000
vn 0.0000 0.0000 -1.0000
vn 1.0000 0.0000 0.0000
vn 0.0000 0.0000 1.0000
vn -0.4565 0.8897 0.0000
vn 0.0000 0.8897 0.4565
vn 0.4565 -0.8897 0.0000
vn -0.4565 -0.8897 0.0000
usemtl None
s off
f 23/29/13 19/30/13 25/31/13 29/32/13
f 24/33/14 22/34/14 32/35/14 30/36/14
f 17/37/15 21/38/15 31/39/15 26/40/15
f 20/41/16 24/33/16 30/36/16 28/42/16
f 19/30/17 23/29/17 21/38/17 17/37/17
f 24/33/18 20/41/18 18/43/18 22/34/18
f 26/44/19 27/45/19 28/46/19 25/47/19
f 25/47/20 28/46/20 30/36/20 29/32/20
f 29/32/21 30/36/21 32/35/21 31/39/21
f 31/39/22 32/35/22 27/48/22 26/49/22
f 18/43/23 20/41/23 28/42/23 27/50/23
f 22/34/24 18/43/24 27/50/24 32/35/24
f 19/30/25 17/37/25 26/40/25 25/31/25
f 21/38/26 23/29/26 29/32/26 31/39/26
o Cube.003_Cube.004
v 1.500930 -5.566054 4.968578
v -1.039034 0.797246 4.968578
v 1.500930 -5.566054 15.919910
v -1.039034 0.797246 15.919910
v 16.861128 0.565098 4.968578
v 14.321163 6.928398 4.968578
v 16.861128 0.565098 15.919910
v 14.321163 6.928398 15.919910
vt 0.375000 0.000000
vt 0.375000 0.250000
vt 0.625000 0.250000
vt 0.625000 0.000000
vt 0.375000 0.500000
vt 0.625000 0.500000
vt 0.375000 0.750000
vt 0.625000 0.750000
vt 0.375000 1.000000
vt 0.625000 1.000000
vt 0.125000 0.500000
vt 0.125000 0.750000
vt 0.875000 0.750000
vt 0.875000 0.500000
vn -0.9287 -0.3707 0.0000
vn 0.0000 0.0000 1.0000
vn 0.9287 0.3707 0.0000
vn 0.0000 0.0000 -1.0000
vn 0.3707 -0.9287 0.0000
vn -0.3707 0.9287 0.0000
usemtl None
s off
f 33/51/27 35/52/27 36/53/27 34/54/27
f 35/52/28 39/55/28 40/56/28 36/53/28
f 39/55/29 37/57/29 38/58/29 40/56/29
f 37/57/30 33/59/30 34/60/30 38/58/30
f 35/61/31 33/62/31 37/57/31 39/55/31
f 40/56/32 38/58/32 34/63/32 36/64/32
