# Blender v3.0.1 OBJ File: ''
# www.blender.org
mtllib several_meshes.mtl
o Cube_Cube.001
v 3.323769 -0.375201 -0.375201
v 3.948567 -1.000000 -0.375201
v 3.323769 0.375201 0.375201
v 3.948567 1.000000 0.375201
v 3.948567 0.375201 1.000000
v 3.323769 -0.375201 0.375201
v 3.948567 -0.375201 1.000000
v 3.948567 -1.000000 0.375201
v 3.948567 -0.375201 -1.000000
v 3.948567 1.000000 -0.375201
v 3.948567 0.375201 -1.000000
v 3.323769 0.375201 -0.375201
v 4.698970 -1.000000 0.375201
v 5.323769 -0.375201 0.375201
v 4.698970 -0.375201 1.000000
v 4.698970 1.000000 0.375201
v 4.698970 0.375201 1.000000
v 5.323769 0.375201 0.375201
v 4.698970 -1.000000 -0.375201
v 4.698970 -0.375201 -1.000000
v 5.323769 -0.375201 -0.375201
v 4.698970 1.000000 -0.375201
v 5.323769 0.375201 -0.375201
v 4.698970 0.375201 -1.000000
vt 0.453100 0.828100
vt 0.546900 0.828100
vt 0.546900 0.921900
vt 0.453100 0.921900
vt 0.453100 0.578100
vt 0.546900 0.578100
vt 0.546900 0.671900
vt 0.453100 0.671900
vt 0.703100 0.578100
vt 0.796900 0.578100
vt 0.796900 0.671900
vt 0.703100 0.671900
vt 0.453100 0.078100
vt 0.546900 0.078100
vt 0.546900 0.171900
vt 0.453100 0.171900
vt 0.453100 0.328100
vt 0.546900 0.328100
vt 0.546900 0.421900
vt 0.453100 0.421900
vt 0.203100 0.671900
vt 0.203100 0.750000
vt 0.125000 0.671900
vt 0.625000 0.921900
vt 0.546900 1.000000
vt 0.203100 0.578100
vt 0.125000 0.578100
vt 0.203100 0.500000
vt 0.625000 0.328100
vt 0.625000 0.328100
vt 0.546900 0.250000
vt 0.296900 0.671900
vt 0.375000 0.671900
vt 0.296900 0.750000
vt 0.625000 0.828100
vt 0.625000 0.828100
vt 0.546900 0.750000
vt 0.296900 0.578100
vt 0.296900 0.500000
vt 0.375000 0.578100
vt 0.625000 0.578100
vt 0.625000 0.578100
vt 0.546900 0.500000
vt 0.453100 0.000000
vt 0.546900 0.000000
vt 0.625000 0.078100
vt 0.625000 0.171900
vt 0.625000 0.421900
vn 0.0000 0.0000 1.0000
vn 1.0000 0.0000 0.0000
vn 0.0000 1.0000 0.0000
vn -1.0000 0.0000 0.0000
vn 0.0000 0.0000 -1.0000
vn -0.5774 -0.5774 0.5774
vn -0.5774 0.5774 0.5774
vn -0.5774 -0.5774 -0.5774
vn -0.5774 0.5774 -0.5774
vn 0.5774 -0.5774 0.5774
vn 0.5774 0.5774 0.5774
vn 0.5774 -0.5774 -0.5774
vn 0.5774 0.5774 -0.5774
vn -0.7071 -0.7071 0.0000
vn -0.7071 0.0000 0.7071
vn -0.7071 0.7071 0.0000
vn -0.7071 0.0000 -0.7071
vn 0.0000 -0.7071 -0.7071
vn 0.0000 0.7071 -0.7071
vn 0.7071 0.0000 -0.7071
vn 0.7071 -0.7071 0.0000
vn 0.7071 0.7071 0.0000
vn 0.7071 0.0000 0.7071
vn 0.0000 -0.7071 0.7071
vn 0.0000 0.7071 0.7071
vn 0.0000 -1.0000 0.0000
usemtl None
s off
f 15/1/1 17/2/1 5/3/1 7/4/1
f 21/5/2 23/6/2 18/7/2 14/8/2
f 22/9/3 10/10/3 4/11/3 16/12/3
f 6/13/4 3/14/4 12/15/4 1/16/4
f 9/17/5 11/18/5 24/19/5 20/20/5
f 8/21/6 7/22/6 6/23/6
f 5/3/7 4/24/7 3/25/7
f 2/26/8 1/27/8 9/28/8
f 10/29/9 11/30/9 12/31/9
f 13/32/10 14/33/10 15/34/10
f 16/35/11 17/36/11 18/37/11
f 19/38/12 20/39/12 21/40/12
f 22/41/13 23/42/13 24/43/13
f 2/26/14 8/21/14 6/23/14 1/27/14
f 7/44/15 5/45/15 3/14/15 6/13/15
f 4/46/16 10/47/16 12/15/16 3/14/16
f 11/18/17 9/17/17 1/16/17 12/15/17
f 19/38/18 2/26/18 9/28/18 20/39/18
f 10/29/19 22/48/19 24/19/19 11/18/19
f 23/6/20 21/5/20 20/20/20 24/19/20
f 13/32/21 19/38/21 21/5/21 14/8/21
f 22/9/22 16/12/22 18/7/22 23/6/22
f 17/2/23 15/1/23 14/8/23 18/7/23
f 8/21/24 13/32/24 15/34/24 7/22/24
f 16/35/25 4/24/25 5/3/25 17/2/25
f 2/26/26 19/38/26 13/32/26 8/21/26
o Cube.001_Cube.002
v -0.375201 -1.000000 0.375201
v -1.000000 -0.375201 0.375201
v -0.375201 -0.375201 1.000000
v -0.375201 -1.000000 -0.375201
v 0.375201 -1.000000 0.375201
v 0.375201 -0.375201 1.000000
v 1.000000 -0.375201 0.375201
v 0.375201 -1.000000 -0.375201
v 1.000000 -0.375201 -0.375201
v 0.375201 -0.375201 -1.000000
v -0.375201 -0.375201 -1.000000
v 0.375201 0.375201 -1.000000
v 0.375201 1.000000 -0.375201
v 1.000000 0.375201 -0.375201
v -0.375201 0.375201 -1.000000
v -0.375201 1.000000 -0.375201
v -1.000000 0.375201 -0.375201
v -1.000000 0.375201 0.375201
v -1.000000 -0.375201 -0.375201
v -0.375201 0.375201 1.000000
v -0.375201 1.000000 0.375201
v 0.375201 1.000000 0.375201
v 1.000000 0.375201 0.375201
v 0.375201 0.375201 1.000000
vt 0.203100 0.578100
vt 0.203100 0.671900
vt 0.125000 0.671900
vt 0.125000 0.578100
vt 0.203100 0.750000
vt 0.296900 0.671900
vt 0.296900 0.750000
vt 0.296900 0.578100
vt 0.375000 0.671900
vt 0.453100 0.578100
vt 0.453100 0.671900
vt 0.296900 0.500000
vt 0.375000 0.578100
vt 0.203100 0.500000
vt 0.546900 0.578100
vt 0.453100 0.421900
vt 0.546900 0.421900
vt 0.453100 0.328100
vt 0.546900 0.328100
vt 0.625000 0.328100
vt 0.625000 0.421900
vt 0.625000 0.578100
vt 0.625000 0.578100
vt 0.546900 0.500000
vt 0.625000 0.328100
vt 0.546900 0.250000
vt 0.453100 0.171900
vt 0.546900 0.171900
vt 0.625000 0.078100
vt 0.625000 0.171900
vt 0.546900 0.078100
vt 0.453100 0.078100
vt 0.453100 0.000000
vt 0.546900 0.000000
vt 0.546900 0.921900
vt 0.625000 0.921900
vt 0.546900 1.000000
vt 0.625000 0.828100
vt 0.546900 0.828100
vt 0.703100 0.578100
vt 0.796900 0.578100
vt 0.796900 0.671900
vt 0.703100 0.671900
vt 0.546900 0.671900
vt 0.625000 0.828100
vt 0.546900 0.750000
vt 0.453100 0.828100
vt 0.453100 0.921900
vn -0.7071 -0.7071 0.0000
vn -0.5774 -0.5774 0.5774
vn 0.0000 -0.7071 0.7071
vn 0.0000 -1.0000 0.0000
vn 0.5774 -0.5774 0.5774
vn 0.7071 -0.7071 0.0000
vn 0.5774 -0.5774 -0.5774
vn 0.0000 -0.7071 -0.7071
vn 0.7071 0.0000 -0.7071
vn 0.0000 0.0000 -1.0000
vn 0.0000 0.7071 -0.7071
vn 0.5774 0.5774 -0.5774
vn -0.5774 0.5774 -0.5774
vn -0.7071 0.0000 -0.7071
vn -0.7071 0.7071 0.0000
vn -1.0000 0.0000 0.0000
vn -0.5774 -0.5774 -0.5774
vn -0.7071 0.0000 0.7071
vn -0.5774 0.5774 0.5774
vn 0.0000 0.7071 0.7071
vn 0.0000 1.0000 0.0000
vn 0.7071 0.7071 0.0000
vn 0.5774 0.5774 0.5774
vn 0.7071 0.0000 0.7071
vn 0.0000 0.0000 1.0000
vn 1.0000 0.0000 0.0000
usemtl None
s off
f 28/49/27 25/50/27 26/51/27 43/52/27
f 25/50/28 27/53/28 26/51/28
f 25/50/29 29/54/29 30/55/29 27/53/29
f 28/49/30 32/56/30 29/54/30 25/50/30
f 29/54/31 31/57/31 30/55/31
f 29/54/32 32/56/32 33/58/32 31/59/32
f 32/56/33 34/60/33 33/61/33
f 32/56/34 28/49/34 35/62/34 34/60/34
f 38/63/35 33/58/35 34/64/35 36/65/35
f 35/66/36 39/67/36 36/65/36 34/64/36
f 40/68/37 37/69/37 36/65/37 39/67/37
f 37/70/38 38/71/38 36/72/38
f 40/68/39 39/73/39 41/74/39
f 39/67/40 35/66/40 43/75/40 41/76/40
f 45/77/41 40/78/41 41/76/41 42/79/41
f 26/80/42 42/79/42 41/76/42 43/75/42
f 28/49/43 43/52/43 35/62/43
f 27/81/44 44/82/44 42/79/44 26/80/44
f 44/83/45 45/84/45 42/85/45
f 46/86/46 45/84/46 44/83/46 48/87/46
f 37/88/47 40/89/47 45/90/47 46/91/47
f 37/88/48 46/91/48 47/92/48 38/63/48
f 46/86/49 48/93/49 47/94/49
f 48/87/50 30/95/50 31/59/50 47/92/50
f 30/95/51 48/87/51 44/83/51 27/96/51
f 33/58/52 38/63/52 47/92/52 31/59/52
o Cube.002_Cube.003
v 3.323769 -0.375201 -5.014744
v 3.948567 -0.375201 -5.639543
v 3.948567 -1.000000 -5.014744
v 3.323769 -0.375201 -4.264341
v 3.323769 0.375201 -5.014744
v 3.948567 0.375201 -5.639543
v 3.948567 1.000000 -5.014744
v 3.323769 0.375201 -4.264341
v 3.948567 1.000000 -4.264341
v 3.948567 0.375201 -3.639543
v 3.948567 -0.375201 -3.639543
v 4.698970 0.375201 -3.639543
v 4.698970 1.000000 -4.264341
v 5.323769 0.375201 -4.264341
v 4.698970 -0.375201 -3.639543
v 4.698970 -1.000000 -4.264341
v 5.323769 -0.375201 -4.264341
v 5.323769 -0.375201 -5.014744
v 4.698970 -1.000000 -5.014744
v 4.698970 -0.375201 -5.639543
v 5.323769 0.375201 -5.014744
v 4.698970 1.000000 -5.014744
v 4.698970 0.375201 -5.639543
v 3.948567 -1.000000 -4.264341
vt 0.546900 0.328100
vt 0.453100 0.328100
vt 0.453100 0.171900
vt 0.546900 0.171900
vt 0.203100 0.578100
vt 0.125000 0.578100
vt 0.203100 0.500000
vt 0.203100 0.671900
vt 0.125000 0.671900
vt 0.453100 0.078100
vt 0.546900 0.078100
vt 0.625000 0.328100
vt 0.625000 0.328100
vt 0.546900 0.250000
vt 0.625000 0.078100
vt 0.625000 0.171900
vt 0.546900 0.921900
vt 0.625000 0.921900
vt 0.546900 1.000000
vt 0.453100 0.000000
vt 0.546900 0.000000
vt 0.625000 0.828100
vt 0.546900 0.828100
vt 0.453100 0.828100
vt 0.453100 0.921900
vt 0.625000 0.828100
vt 0.546900 0.750000
vt 0.453100 0.671900
vt 0.546900 0.671900
vt 0.296900 0.671900
vt 0.296900 0.750000
vt 0.203100 0.750000
vt 0.375000 0.671900
vt 0.296900 0.578100
vt 0.453100 0.578100
vt 0.546900 0.578100
vt 0.296900 0.500000
vt 0.375000 0.578100
vt 0.453100 0.421900
vt 0.546900 0.421900
vt 0.703100 0.578100
vt 0.703100 0.671900
vt 0.625000 0.578100
vt 0.625000 0.578100
vt 0.546900 0.500000
vt 0.625000 0.421900
vt 0.796900 0.578100
vt 0.796900 0.671900
vn -0.7071 0.0000 -0.7071
vn -0.5774 -0.5774 -0.5773
vn -0.7071 -0.7071 0.0000
vn -1.0000 0.0000 0.0000
vn -0.5774 0.5774 -0.5773
vn -0.7071 0.7071 0.0000
vn -0.5774 0.5774 0.5773
vn -0.7071 0.0000 0.7071
vn 0.0000 0.7071 0.7071
vn 0.0000 0.0000 1.0000
vn 0.5774 0.5773 0.5774
vn 0.7071 0.0000 0.7071
vn 0.0000 -0.7071 0.7071
vn 0.5774 -0.5773 0.5774
vn 0.7071 -0.7071 0.0000
vn 1.0000 0.0000 0.0000
vn 0.5774 -0.5773 -0.5774
vn 0.7071 0.0000 -0.7071
vn 0.7071 0.7071 0.0000
vn 0.5774 0.5773 -0.5774
vn 0.0000 0.7071 -0.7071
vn 0.0000 0.0000 -1.0000
vn 0.0000 1.0000 0.0000
vn 0.0000 -0.7071 -0.7071
vn 0.0000 -1.0000 0.0000
vn -0.5774 -0.5774 0.5773
usemtl None
s off
f 54/97/53 50/98/53 49/99/53 53/100/53
f 51/101/54 49/102/54 50/103/54
f 51/101/55 72/104/55 52/105/55 49/102/55
f 52/106/56 56/107/56 53/100/56 49/99/56
f 55/108/57 54/109/57 53/110/57
f 57/111/58 55/112/58 53/100/58 56/107/58
f 58/113/59 57/114/59 56/115/59
f 59/116/60 58/117/60 56/107/60 52/106/60
f 61/118/61 57/114/61 58/113/61 60/119/61
f 63/120/62 60/119/62 58/113/62 59/121/62
f 61/118/63 60/122/63 62/123/63
f 60/119/64 63/120/64 65/124/64 62/125/64
f 72/104/65 64/126/65 63/127/65 59/128/65
f 64/126/66 65/129/66 63/127/66
f 64/126/67 67/130/67 66/131/67 65/124/67
f 66/131/68 69/132/68 62/125/68 65/124/68
f 67/130/69 68/133/69 66/134/69
f 69/132/70 66/131/70 68/135/70 71/136/70
f 70/137/71 61/138/71 62/125/71 69/132/71
f 70/139/72 69/140/72 71/141/72
f 55/108/73 70/142/73 71/136/73 54/97/73
f 50/98/74 54/97/74 71/136/74 68/135/74
f 70/137/75 55/143/75 57/144/75 61/138/75
f 67/130/76 51/101/76 50/103/76 68/133/76
f 51/101/77 67/130/77 64/126/77 72/104/77
f 72/104/78 59/128/78 52/105/78
o Cube.003_Cube.004
v 8.381915 -0.375201 -5.014744
v 9.006714 -0.375201 -5.639543
v 9.006714 -1.000000 -5.014744
v 8.381915 -0.375201 -4.264341
v 8.381915 0.375201 -5.014744
v 9.006714 0.375201 -5.639543
v 9.006714 1.000000 -5.014744
v 8.381915 0.375201 -4.264341
v 9.006714 1.000000 -4.264341
v 9.006714 0.375201 -3.639543
v 9.006714 -0.375201 -3.639543
v 9.757116 0.375201 -3.639543
v 9.757116 1.000000 -4.264341
v 10.381915 0.375201 -4.264341
v 9.757116 -0.375201 -3.639543
v 9.757116 -1.000000 -4.264341
v 10.381915 -0.375201 -4.264341
v 10.381915 -0.375201 -5.014744
v 9.757116 -1.000000 -5.014744
v 9.757116 -0.375201 -5.639543
v 10.381915 0.375201 -5.014744
v 9.757116 1.000000 -5.014744
v 9.757116 0.375201 -5.639543
v 9.006714 -1.000000 -4.264341
vt 0.546900 0.328100
vt 0.453100 0.328100
vt 0.453100 0.171900
vt 0.546900 0.171900
vt 0.203100 0.578100
vt 0.125000 0.578100
vt 0.203100 0.500000
vt 0.203100 0.671900
vt 0.125000 0.671900
vt 0.453100 0.078100
vt 0.546900 0.078100
vt 0.625000 0.328100
vt 0.625000 0.328100
vt 0.546900 0.250000
vt 0.625000 0.078100
vt 0.625000 0.171900
vt 0.546900 0.921900
vt 0.625000 0.921900
vt 0.546900 1.000000
vt 0.453100 0.000000
vt 0.546900 0.000000
vt 0.625000 0.828100
vt 0.546900 0.828100
vt 0.453100 0.828100
vt 0.453100 0.921900
vt 0.625000 0.828100
vt 0.546900 0.750000
vt 0.453100 0.671900
vt 0.546900 0.671900
vt 0.296900 0.671900
vt 0.296900 0.750000
vt 0.203100 0.750000
vt 0.375000 0.671900
vt 0.296900 0.578100
vt 0.453100 0.578100
vt 0.546900 0.578100
vt 0.296900 0.500000
vt 0.375000 0.578100
vt 0.453100 0.421900
vt 0.546900 0.421900
vt 0.703100 0.578100
vt 0.703100 0.671900
vt 0.625000 0.578100
vt 0.625000 0.578100
vt 0.546900 0.500000
vt 0.625000 0.421900
vt 0.796900 0.578100
vt 0.796900 0.671900
vn -0.7071 0.0000 -0.7071
vn -0.5774 -0.5773 -0.5774
vn -0.7071 -0.7071 0.0000
vn -1.0000 0.0000 0.0000
vn -0.5774 0.5773 -0.5774
vn -0.7071 0.7071 0.0000
vn -0.5774 0.5773 0.5774
vn -0.7071 0.0000 0.7071
vn 0.0000 0.7071 0.7071
vn 0.0000 0.0000 1.0000
vn 0.5774 0.5773 0.5774
vn 0.7071 0.0000 0.7071
vn 0.0000 -0.7071 0.7071
vn 0.5774 -0.5773 0.5774
vn 0.7071 -0.7071 0.0000
vn 1.0000 0.0000 0.0000
vn 0.5774 -0.5773 -0.5774
vn 0.7071 0.0000 -0.7071
vn 0.7071 0.7071 0.0000
vn 0.5774 0.5773 -0.5774
vn 0.0000 0.7071 -0.7071
vn 0.0000 0.0000 -1.0000
vn 0.0000 1.0000 0.0000
vn 0.0000 -0.7071 -0.7071
vn 0.0000 -1.0000 0.0000
vn -0.5774 -0.5773 0.5774
usemtl None
s off
f 78/145/79 74/146/79 73/147/79 77/148/79
f 75/149/80 73/150/80 74/151/80
f 75/149/81 96/152/81 76/153/81 73/150/81
f 76/154/82 80/155/82 77/148/82 73/147/82
f 79/156/83 78/157/83 77/158/83
f 81/159/84 79/160/84 77/148/84 80/155/84
f 82/161/85 81/162/85 80/163/85
f 83/164/86 82/165/86 80/155/86 76/154/86
f 85/166/87 81/162/87 82/161/87 84/167/87
f 87/168/88 84/167/88 82/161/88 83/169/88
f 85/166/89 84/170/89 86/171/89
f 84/167/90 87/168/90 89/172/90 86/173/90
f 96/152/91 88/174/91 87/175/91 83/176/91
f 88/174/92 89/177/92 87/175/92
f 88/174/93 91/178/93 90/179/93 89/172/93
f 90/179/94 93/180/94 86/173/94 89/172/94
f 91/178/95 92/181/95 90/182/95
f 93/180/96 90/179/96 92/183/96 95/184/96
f 94/185/97 85/186/97 86/173/97 93/180/97
f 94/187/98 93/188/98 95/189/98
f 79/156/99 94/190/99 95/184/99 78/145/99
f 74/146/100 78/145/100 95/184/100 92/183/100
f 94/185/101 79/191/101 81/192/101 85/186/101
f 91/178/102 75/149/102 74/151/102 92/181/102
f 75/149/103 91/178/103 88/174/103 96/152/103
f 96/152/104 83/176/104 76/153/104
